<svg xmlns="http://www.w3.org/2000/svg" viewBox="0 0 34 34"><defs><style>.cls-1{fill:#f0f0f0;}.cls-2{fill:#d80027;}.cls-3{fill:#0052b4;}.cls-4{fill:#fff;}.cls-5{fill:#273052;}</style></defs><g id="_3" data-name="3"><g id="us30"><circle class="cls-1" cx="17" cy="17" r="17"/><path class="cls-2" d="M16.26,17H34a17,17,0,0,0-.59-4.43H16.26Z"/><path class="cls-2" d="M16.26,8.13H31.5A17,17,0,0,0,27.58,3.7H16.26Z"/><path class="cls-2" d="M17,34a16.93,16.93,0,0,0,10.58-3.7H6.42A16.93,16.93,0,0,0,17,34Z"/><path class="cls-2" d="M2.5,25.87h29a17,17,0,0,0,1.91-4.44H.59A17,17,0,0,0,2.5,25.87Z"/><path class="cls-3" d="M7.88,2.66H9.43L8,3.7l.55,1.7L7.09,4.35,5.65,5.4l.48-1.46a17,17,0,0,0-3.3,3.67h.5l-.92.67c-.14.23-.28.48-.41.72l.44,1.35-.82-.59c-.2.43-.39.87-.55,1.32l.48,1.48H3.33l-1.44,1,.55,1.69L1,14.25l-.86.63A16.53,16.53,0,0,0,0,17H17V0A16.89,16.89,0,0,0,7.88,2.66ZM8.54,15.3,7.09,14.25,5.65,15.3l.55-1.69-1.44-1H6.54l.55-1.69.55,1.69H9.43L8,13.61ZM8,8.66l.55,1.69-1.45-1-1.44,1L6.2,8.66l-1.44-1H6.54l.55-1.69.55,1.69H9.43Zm6.64,6.64-1.44-1.05L11.75,15.3l.55-1.69-1.44-1h1.78l.55-1.69.55,1.69h1.78l-1.44,1Zm-.55-6.64.55,1.69-1.44-1-1.44,1,.55-1.69-1.44-1h1.78l.55-1.69.55,1.69h1.78Zm0-5,.55,1.7L13.19,4.35,11.75,5.4l.55-1.7-1.44-1h1.78L13.19,1l.55,1.7h1.78Z"/><rect id="Txt_BG" class="cls-4" x="8.54" y="11.94" width="16.93" height="10.11" rx="1.27"/><path class="cls-5" d="M16.47,18c0,.8-.63,1.53-2,1.53A3.35,3.35,0,0,1,12.62,19l.44-.84a2.38,2.38,0,0,0,1.38.43c.56,0,.91-.22.91-.61s-.27-.58-.91-.58h-.51v-.72l1-1.11H12.86V14.7h3.39v.7l-1.09,1.22A1.36,1.36,0,0,1,16.47,18Z"/><path class="cls-5" d="M16.89,17.06c0-1.56.88-2.45,2.07-2.45S21,15.5,21,17.06s-.87,2.45-2.07,2.45S16.89,18.62,16.89,17.06Zm3,0c0-1.07-.39-1.52-.95-1.52S18,16,18,17.06s.39,1.52.94,1.52S19.91,18.14,19.91,17.06Z"/></g></g></svg>